Coordinates
version=1
nRows=14
nColumns=24
inDegrees=yes

Units are S.I. units (second, meters, Newtons, ...)
Angles are in degrees.

endheader
time	pelvis_tilt	pelvis_list	pelvis_rotation	pelvis_tx	pelvis_ty	pelvis_tz	hip_flexion_r	hip_adduction_r	hip_rotation_r	knee_angle_r	ankle_angle_r	subtalar_angle_r	mtp_angle_r	hip_flexion_l	hip_adduction_l	hip_rotation_l	knee_angle_l	ankle_angle_l	subtalar_angle_l	mtp_angle_l	lumbar_extension	lumbar_bending	lumbar_rotation
      0.92933333	      1.96176241	      3.05006732	     -5.32287264	     -0.18873636	      1.00730837	      0.29656743	    -11.43313653	     -1.84962775	      0.46040962	    -12.77616180	     16.30960066	     -6.13941226	      6.66844890	     18.17502133	      2.20235128	     -9.95770289	      2.28102085	     -2.01839759	     -9.19133893	      5.10583880	     -9.62663644	     -3.08439084	     10.80625109
      0.93350000	      2.02185174	      3.09300683	     -5.36396290	     -0.18282576	      1.00681424	      0.29627911	    -11.59651306	     -1.95188274	      0.42490825	    -13.31140258	     16.40448789	     -6.11681025	      6.62619956	     18.07791015	      2.27944131	     -9.85120267	      2.33026722	     -1.85067371	     -9.23182446	      5.13317691	     -9.65101487	     -3.17224116	     10.89356935
      0.93766667	      2.08347356	      3.15216732	     -5.42198751	     -0.17688493	      1.00635282	      0.29596754	    -11.71600742	     -2.08838647	      0.34037383	    -13.93442226	     16.51623075	     -5.92369283	      6.54509976	     17.96309767	      2.37510675	     -9.69182855	      2.33760940	     -1.74799847	     -9.32735394	      5.19625237	     -9.67421035	     -3.26053015	     11.05276193
      0.94183333	      2.13252127	      3.21983551	     -5.45874863	     -0.17092858	      1.00592369	      0.29565897	    -11.82782477	     -2.21639002	      0.33378063	    -14.54613532	     16.50455766	     -5.99587438	      6.52614844	     17.89780901	      2.47591099	     -9.53423661	      2.19517149	     -1.61228797	     -9.37565467	      5.21785889	     -9.68420967	     -3.36385613	     11.08384305
      0.94600000	      2.19793891	      3.30154641	     -5.51908813	     -0.16495729	      1.00553077	      0.29533919	    -11.89356141	     -2.38391894	      0.24156879	    -15.28425813	     16.61534134	     -5.76922996	      6.48105429	     17.79163065	      2.59534333	     -9.29527611	      2.03393489	     -1.55754422	     -9.57178317	      5.30025833	     -9.70101714	     -3.50592684	     11.22796425
      0.95016667	      2.26523698	      3.39856379	     -5.57106132	     -0.15895030	      1.00518722	      0.29501116	    -11.95129438	     -2.56281650	      0.18125986	    -16.04006683	     16.62837848	     -5.67245378	      6.45428411	     17.69709347	      2.73224086	     -9.05370033	      1.78071530	     -1.52711732	     -9.75729239	      5.39965485	     -9.72253183	     -3.65686349	     11.31172846
      0.95433333	      2.31047767	      3.49134950	     -5.61769942	     -0.15293346	      1.00483433	      0.29466033	    -11.95671409	     -2.73592582	      0.12755096	    -16.85316328	     16.60891997	     -5.59024683	      6.45666357	     17.63476862	      2.86531175	     -8.77779598	      1.45289883	     -1.51612127	     -9.95738839	      5.50317146	     -9.71262738	     -3.79920711	     11.38676643
      0.95850000	      2.38380328	      3.60747867	     -5.67165573	     -0.14688168	      1.00455924	      0.29430371	    -11.96048672	     -2.94376947	      0.05499763	    -17.72452186	     16.56717420	     -5.48099466	      6.48873236	     17.53701100	      3.02872805	     -8.49760840	      1.08600505	     -1.55558804	    -10.18418520	      5.61314706	     -9.72792003	     -3.97374855	     11.45864471
      0.96266667	      2.45536602	      3.72800105	     -5.71900784	     -0.14081142	      1.00430345	      0.29391850	    -11.93294167	     -3.15846245	     -0.02745872	    -18.65281307	     16.48593521	     -5.36738347	      6.55567036	     17.44658111	      3.20226569	     -8.19114118	      0.66496789	     -1.63760031	    -10.45070406	      5.73657156	     -9.73969176	     -4.15137091	     11.52389314
      0.96683333	      2.50574500	      3.86250167	     -5.76011942	     -0.13471638	      1.00405880	      0.29352521	    -11.86059501	     -3.38253965	     -0.08337815	    -19.61922719	     16.34482251	     -5.30244835	      6.63826505	     17.39130251	      3.39017965	     -7.88757744	      0.18005747	     -1.73955753	    -10.69415406	      5.84347647	     -9.73529193	     -4.35623550	     11.57341207
      0.97100000	      2.57596379	      3.99058290	     -5.80674100	     -0.12861775	      1.00385171	      0.29308089	    -11.75525947	     -3.61900280	     -0.20792378	    -20.68851866	     16.19468985	     -5.13745473	      6.79669360	     17.29871058	      3.58307269	     -7.55152659	     -0.29753013	     -1.93264452	    -11.04447413	      5.99773366	     -9.73379179	     -4.52540016	     11.62925384
      0.97516667	      2.64319629	      4.13195259	     -5.84797958	     -0.12249099	      1.00366571	      0.29263476	    -11.62407293	     -3.86572038	     -0.30699471	    -21.79759964	     15.98103828	     -5.03467049	      7.00223937	     17.21370383	      3.79243295	     -7.22144080	     -0.81032360	     -2.13442815	    -11.37372731	      6.16235460	     -9.72888934	     -4.72612075	     11.66327441
      0.97933333	      2.71791462	      4.26710840	     -5.85760780	     -0.11635067	      1.00352628	      0.29214497	    -11.49369975	     -4.09805849	     -0.41372101	    -22.90921954	     15.58447797	     -5.09579779	     11.15352369	     17.12998721	      4.00643934	     -6.87351680	     -1.35619031	     -2.43522243	    -11.75927292	      8.98614662	     -9.74066272	     -4.92393735	     11.63070054
      0.98350000	      2.80676955	      4.43127272	     -5.91058236	     -0.11020106	      1.00341199	      0.29167344	    -11.30833588	     -4.38581476	     -0.52743368	    -24.14989112	     15.30151697	     -4.95584539	     11.19811229	     17.03244595	      4.24202774	     -6.63610843	     -1.92701749	     -2.63707461	    -11.98139266	      9.01038048	     -9.75810419	     -5.14889345	     11.68691338
